<?xml version="1.0" encoding="UTF-8" standalone="no"?>
<!DOCTYPE svg PUBLIC "-//W3C//DTD SVG 1.1//EN"
 "http://www.w3.org/Graphics/SVG/1.1/DTD/svg11.dtd">
<!-- Generated by graphviz version 2.43.0 (0)
 -->
<!-- Title: G Pages: 1 -->
<svg width="1941pt" height="1380pt"
 viewBox="0.00 0.00 1940.58 1380.00" xmlns="http://www.w3.org/2000/svg" xmlns:xlink="http://www.w3.org/1999/xlink">
<g id="graph0" class="graph" transform="scale(1 1) rotate(0) translate(4 1376)">
<title>G</title>
<polygon fill="white" stroke="transparent" points="-4,4 -4,-1376 1936.58,-1376 1936.58,4 -4,4"/>
<!-- Users -->
<g id="node1" class="node">
<title>Users</title>
<polygon fill="none" stroke="black" points="83.58,-636 29.58,-636 29.58,-600 83.58,-600 83.58,-636"/>
<text text-anchor="middle" x="56.58" y="-613.8" font-family="Times,serif" font-size="14.00">Users</text>
</g>
<!-- uid -->
<g id="node2" class="node">
<title>uid</title>
<ellipse fill="none" stroke="black" cx="289.58" cy="-699" rx="27" ry="18"/>
<text text-anchor="start" x="277.14" y="-695.8" font-family="Times,serif" text-decoration="underline" font-size="14.00"> uid </text>
</g>
<!-- Users&#45;&gt;uid -->
<g id="edge1" class="edge">
<title>Users&#45;&gt;uid</title>
<path fill="none" stroke="black" d="M83.63,-627.13C129.06,-643.06 222.05,-675.67 265.39,-690.87"/>
</g>
<!-- uname -->
<g id="node3" class="node">
<title>uname</title>
<ellipse fill="none" stroke="black" cx="289.58" cy="-645" rx="33.86" ry="18"/>
<text text-anchor="middle" x="289.58" y="-640.8" font-family="Times,serif" font-size="14.00">uname</text>
</g>
<!-- Users&#45;&gt;uname -->
<g id="edge2" class="edge">
<title>Users&#45;&gt;uname</title>
<path fill="none" stroke="black" d="M83.63,-621.04C126.11,-626.01 210.18,-635.84 256.35,-641.23"/>
</g>
<!-- password -->
<g id="node4" class="node">
<title>password</title>
<ellipse fill="none" stroke="black" cx="289.58" cy="-591" rx="43.52" ry="18"/>
<text text-anchor="middle" x="289.58" y="-586.8" font-family="Times,serif" font-size="14.00">password</text>
</g>
<!-- Users&#45;&gt;password -->
<g id="edge3" class="edge">
<title>Users&#45;&gt;password</title>
<path fill="none" stroke="black" d="M83.63,-614.96C123.51,-610.29 200.06,-601.35 247.48,-595.8"/>
</g>
<!-- ISA -->
<g id="node5" class="node">
<title>ISA</title>
<polygon fill="none" stroke="black" points="289.58,-555 240.65,-522 338.51,-522 289.58,-555"/>
<text text-anchor="middle" x="289.58" y="-528.8" font-family="Times,serif" font-size="14.00">ISA</text>
</g>
<!-- Users&#45;&gt;ISA -->
<g id="edge32" class="edge">
<title>Users&#45;&gt;ISA:n</title>
<path fill="none" stroke="black" d="M83.09,-607.29C118.43,-595.63 183.51,-575.06 240.42,-562.05 248.59,-560.29 269.62,-562.46 280.84,-560.11"/>
<path fill="none" stroke="transparent" d="M83.72,-609.19C119.03,-597.53 184.11,-576.97 240.87,-564 248.39,-562.28 269.42,-564.45 281.24,-562.07"/>
<path fill="none" stroke="black" d="M84.34,-611.09C119.64,-599.44 184.71,-578.88 241.31,-565.95 248.18,-564.27 269.21,-566.44 281.63,-564.03"/>
<polygon fill="black" stroke="black" points="283.56,-564.71 289.58,-556 279.44,-559.06 283.56,-564.71"/>
</g>
<!-- Manager -->
<g id="node6" class="node">
<title>Manager</title>
<polygon fill="none" stroke="black" points="582.33,-524 516.83,-524 516.83,-488 582.33,-488 582.33,-524"/>
<text text-anchor="middle" x="549.58" y="-501.8" font-family="Times,serif" font-size="14.00">Manager</text>
</g>
<!-- ISA&#45;&gt;Manager -->
<g id="edge33" class="edge">
<title>ISA&#45;&gt;Manager</title>
<path fill="none" stroke="black" d="M328.1,-529.07C378.97,-523.75 468.95,-514.33 516.71,-509.33"/>
</g>
<!-- Restaurants -->
<g id="node10" class="node">
<title>Restaurants</title>
<polygon fill="none" stroke="black" points="1701.4,-620 1619.76,-620 1619.76,-584 1701.4,-584 1701.4,-620"/>
<text text-anchor="middle" x="1660.58" y="-597.8" font-family="Times,serif" font-size="14.00">Restaurants</text>
</g>
<!-- ISA&#45;&gt;Restaurants -->
<g id="edge34" class="edge">
<title>ISA&#45;&gt;Restaurants</title>
<path fill="none" stroke="black" d="M326.53,-521.98C369.53,-509.3 443.88,-488.95 509.2,-479 648.02,-457.85 684.16,-460 824.58,-460 824.58,-460 824.58,-460 1113.58,-460 1261.7,-460 1301.56,-463.14 1443.94,-504 1512.32,-523.63 1586.76,-561.48 1627.84,-583.96"/>
</g>
<!-- Customers -->
<g id="node22" class="node">
<title>Customers</title>
<polygon fill="none" stroke="black" points="587.47,-1264 511.69,-1264 511.69,-1228 587.47,-1228 587.47,-1264"/>
<text text-anchor="middle" x="549.58" y="-1241.8" font-family="Times,serif" font-size="14.00">Customers</text>
</g>
<!-- ISA&#45;&gt;Customers -->
<g id="edge35" class="edge">
<title>ISA&#45;&gt;Customers</title>
<path fill="none" stroke="black" d="M310.14,-541.68C319.85,-546.89 331.03,-554.38 338.29,-564 506.12,-786.22 541.35,-1143.91 547.45,-1227.93"/>
</g>
<!-- Riders -->
<g id="node38" class="node">
<title>Riders</title>
<polygon fill="none" stroke="black" points="576.58,-578 522.58,-578 522.58,-542 576.58,-542 576.58,-578"/>
<text text-anchor="middle" x="549.58" y="-555.8" font-family="Times,serif" font-size="14.00">Riders</text>
</g>
<!-- ISA&#45;&gt;Riders -->
<g id="edge36" class="edge">
<title>ISA&#45;&gt;Riders</title>
<path fill="none" stroke="black" d="M318.19,-535.89C368.24,-541.13 473.29,-552.12 522.32,-557.25"/>
</g>
<!-- gives -->
<g id="node7" class="node">
<title>gives</title>
<polygon fill="none" stroke="black" points="825.58,-524 784.69,-506 825.58,-488 866.47,-506 825.58,-524"/>
<text text-anchor="middle" x="825.58" y="-501.8" font-family="Times,serif" font-size="14.00">gives</text>
</g>
<!-- Manager&#45;&gt;gives -->
<g id="edge37" class="edge">
<title>Manager&#45;&gt;gives</title>
<path fill="none" stroke="black" d="M582.55,-506C632.8,-506 730.19,-506 784.86,-506"/>
</g>
<!-- Promotions -->
<g id="node8" class="node">
<title>Promotions</title>
<polygon fill="none" stroke="black" points="1152.65,-536 1072.51,-536 1072.51,-500 1152.65,-500 1152.65,-536"/>
<text text-anchor="middle" x="1112.58" y="-513.8" font-family="Times,serif" font-size="14.00">Promotions</text>
</g>
<!-- gives&#45;&gt;Promotions -->
<g id="edge38" class="edge">
<title>gives&#45;&gt;Promotions</title>
<path fill="none" stroke="black" d="M863.26,-507.54C917.08,-509.81 1017.04,-514.02 1072.31,-516.35"/>
</g>
<!-- sets -->
<g id="node9" class="node">
<title>sets</title>
<polygon fill="none" stroke="black" points="1391.58,-549 1358.47,-531 1391.58,-513 1424.69,-531 1391.58,-549"/>
<text text-anchor="middle" x="1391.58" y="-526.8" font-family="Times,serif" font-size="14.00">sets</text>
</g>
<!-- Promotions&#45;&gt;sets -->
<g id="edge43" class="edge">
<title>Promotions&#45;&gt;sets</title>
<path fill="none" stroke="black" d="M1152.68,-519.84C1208.75,-522.47 1310.77,-527.25 1361.01,-529.61"/>
</g>
<!-- sets&#45;&gt;Restaurants -->
<g id="edge44" class="edge">
<title>sets&#45;&gt;Restaurants</title>
<path fill="none" stroke="black" d="M1414.43,-536.81C1459.39,-548.77 1562.82,-576.27 1619.92,-591.45"/>
</g>
<!-- in -->
<g id="node17" class="node">
<title>in</title>
<polygon fill="none" stroke="black" points="1876.58,-911 1849.58,-893 1876.58,-875 1903.58,-893 1876.58,-911"/>
<text text-anchor="middle" x="1876.58" y="-888.8" font-family="Times,serif" font-size="14.00">in</text>
</g>
<!-- Restaurants&#45;&gt;in -->
<g id="edge42" class="edge">
<title>Restaurants&#45;&gt;in</title>
<path fill="none" stroke="black" d="M1676.58,-619.02C1714.55,-670.66 1822.76,-817.8 1862.41,-871.71"/>
<path fill="none" stroke="transparent" d="M1674.97,-620.2C1712.94,-671.84 1821.15,-818.99 1860.79,-872.89"/>
<path fill="none" stroke="black" d="M1673.36,-621.39C1711.33,-673.02 1819.54,-820.17 1859.18,-874.08"/>
<polygon fill="black" stroke="black" points="1858.21,-875.29 1866.96,-881.28 1863.85,-871.15 1858.21,-875.29"/>
</g>
<!-- Sells -->
<g id="node11" class="node">
<title>Sells</title>
<polygon fill="none" stroke="black" points="1391.58,-885.93 1352.9,-868 1391.58,-850.07 1430.26,-868 1391.58,-885.93"/>
<polygon fill="none" stroke="black" points="1391.58,-890.33 1343.41,-868 1391.58,-845.67 1439.75,-868 1391.58,-890.33"/>
<text text-anchor="middle" x="1391.58" y="-863.8" font-family="Times,serif" font-size="14.00">Sells</text>
</g>
<!-- Sells&#45;&gt;Restaurants -->
<g id="edge40" class="edge">
<title>Sells&#45;&gt;Restaurants</title>
<path fill="none" stroke="black" d="M1414.99,-856.33C1424.34,-851 1435.07,-844.25 1443.94,-837 1530.08,-766.52 1613.89,-661.85 1645.92,-620.12"/>
</g>
<!-- Food -->
<g id="node12" class="node">
<title>Food</title>
<polygon fill="none" stroke="black" points="1139.58,-774 1085.58,-774 1085.58,-738 1139.58,-738 1139.58,-774"/>
<polygon fill="none" stroke="black" points="1143.58,-778 1081.58,-778 1081.58,-734 1143.58,-734 1143.58,-778"/>
<text text-anchor="middle" x="1112.58" y="-751.8" font-family="Times,serif" font-size="14.00">Food</text>
</g>
<!-- Food&#45;&gt;Sells -->
<g id="edge39" class="edge">
<title>Food&#45;&gt;Sells</title>
<path fill="none" stroke="black" d="M1144.5,-766.34C1196.35,-787.31 1302.06,-830.05 1356.79,-852.18"/>
<path fill="none" stroke="transparent" d="M1143.75,-768.2C1195.6,-789.16 1301.32,-831.91 1356.04,-854.03"/>
<path fill="none" stroke="black" d="M1143,-770.05C1194.85,-791.02 1300.57,-833.76 1355.29,-855.89"/>
<polygon fill="black" stroke="black" points="1354.74,-857.28 1365.32,-857.79 1357.36,-850.79 1354.74,-857.28"/>
</g>
<!-- fname -->
<g id="node13" class="node">
<title>fname</title>
<ellipse fill="none" stroke="black" cx="1391.58" cy="-810" rx="36.75" ry="18"/>
<text text-anchor="start" x="1370.59" y="-806.8" font-family="Times,serif" text-decoration="underline" font-size="14.00"> fname </text>
</g>
<!-- Food&#45;&gt;fname -->
<g id="edge4" class="edge">
<title>Food&#45;&gt;fname</title>
<path fill="none" stroke="black" d="M1143.75,-761.88C1195.91,-772.05 1302.58,-792.84 1357.01,-803.46"/>
</g>
<!-- category -->
<g id="node14" class="node">
<title>category</title>
<ellipse fill="none" stroke="black" cx="1391.58" cy="-756" rx="40.6" ry="18"/>
<text text-anchor="middle" x="1391.58" y="-751.8" font-family="Times,serif" font-size="14.00">category</text>
</g>
<!-- Food&#45;&gt;category -->
<g id="edge5" class="edge">
<title>Food&#45;&gt;category</title>
<path fill="none" stroke="black" d="M1143.75,-756C1193.95,-756 1294.63,-756 1350.65,-756"/>
</g>
<!-- price -->
<g id="node15" class="node">
<title>price</title>
<ellipse fill="none" stroke="black" cx="1391.58" cy="-702" rx="27.56" ry="18"/>
<text text-anchor="middle" x="1391.58" y="-697.8" font-family="Times,serif" font-size="14.00">price</text>
</g>
<!-- Food&#45;&gt;price -->
<g id="edge6" class="edge">
<title>Food&#45;&gt;price</title>
<path fill="none" stroke="black" d="M1143.75,-750.12C1198.44,-739.46 1313.03,-717.12 1364.53,-707.08"/>
</g>
<!-- limit -->
<g id="node16" class="node">
<title>limit</title>
<ellipse fill="none" stroke="black" cx="1391.58" cy="-648" rx="27" ry="18"/>
<text text-anchor="middle" x="1391.58" y="-643.8" font-family="Times,serif" font-size="14.00">limit</text>
</g>
<!-- Food&#45;&gt;limit -->
<g id="edge7" class="edge">
<title>Food&#45;&gt;limit</title>
<path fill="none" stroke="black" d="M1143.75,-744.24C1199.7,-722.42 1318.35,-676.16 1367.99,-656.81"/>
</g>
<!-- Locations -->
<g id="node18" class="node">
<title>Locations</title>
<polygon fill="none" stroke="black" points="1148.29,-1156 1076.87,-1156 1076.87,-1120 1148.29,-1120 1148.29,-1156"/>
<text text-anchor="middle" x="1112.58" y="-1133.8" font-family="Times,serif" font-size="14.00">Locations</text>
</g>
<!-- Locations&#45;&gt;in -->
<g id="edge41" class="edge">
<title>Locations&#45;&gt;in</title>
<path fill="none" stroke="black" d="M1148.63,-1148.92C1209.87,-1166.23 1339.72,-1195.1 1443.94,-1165 1632.85,-1110.44 1818.72,-945.96 1864.76,-903.23"/>
</g>
<!-- lon -->
<g id="node19" class="node">
<title>lon</title>
<ellipse fill="none" stroke="black" cx="1391.58" cy="-1138" rx="52.21" ry="18"/>
<text text-anchor="start" x="1358.14" y="-1134.8" font-family="Times,serif" text-decoration="underline" font-size="14.00"> longditude </text>
</g>
<!-- Locations&#45;&gt;lon -->
<g id="edge8" class="edge">
<title>Locations&#45;&gt;lon</title>
<path fill="none" stroke="black" d="M1148.38,-1138C1196.48,-1138 1283.61,-1138 1339.21,-1138"/>
</g>
<!-- lat -->
<g id="node20" class="node">
<title>lat</title>
<ellipse fill="none" stroke="black" cx="1391.58" cy="-1084" rx="41.1" ry="18"/>
<text text-anchor="start" x="1367.09" y="-1080.8" font-family="Times,serif" text-decoration="underline" font-size="14.00"> latitude </text>
</g>
<!-- Locations&#45;&gt;lat -->
<g id="edge9" class="edge">
<title>Locations&#45;&gt;lat</title>
<path fill="none" stroke="black" d="M1148.38,-1131.22C1200.84,-1120.99 1299.73,-1101.71 1353.5,-1091.23"/>
</g>
<!-- address -->
<g id="node21" class="node">
<title>address</title>
<ellipse fill="none" stroke="black" cx="1391.58" cy="-1030" rx="36.76" ry="18"/>
<text text-anchor="middle" x="1391.58" y="-1025.8" font-family="Times,serif" font-size="14.00">address</text>
</g>
<!-- Locations&#45;&gt;address -->
<g id="edge10" class="edge">
<title>Locations&#45;&gt;address</title>
<path fill="none" stroke="black" d="M1148.38,-1124.43C1203.89,-1102.79 1311.39,-1060.88 1362.4,-1040.99"/>
</g>
<!-- join_date -->
<g id="node23" class="node">
<title>join_date</title>
<ellipse fill="none" stroke="black" cx="825.58" cy="-1246" rx="43.03" ry="18"/>
<text text-anchor="middle" x="825.58" y="-1241.8" font-family="Times,serif" font-size="14.00">join_date</text>
</g>
<!-- Customers&#45;&gt;join_date -->
<g id="edge11" class="edge">
<title>Customers&#45;&gt;join_date</title>
<path fill="none" stroke="black" d="M587.53,-1246C638.22,-1246 729.08,-1246 782.38,-1246"/>
</g>
<!-- points -->
<g id="node24" class="node">
<title>points</title>
<ellipse fill="none" stroke="black" cx="825.58" cy="-1354" rx="31.96" ry="18"/>
<text text-anchor="middle" x="825.58" y="-1349.8" font-family="Times,serif" font-size="14.00">points</text>
</g>
<!-- Customers&#45;&gt;points -->
<g id="edge12" class="edge">
<title>Customers&#45;&gt;points</title>
<path fill="none" stroke="black" d="M587.53,-1260.57C644.06,-1282.85 750.57,-1324.83 799.2,-1344"/>
</g>
<!-- uses -->
<g id="node25" class="node">
<title>uses</title>
<polygon fill="none" stroke="black" points="825.58,-1318 789.92,-1300 825.58,-1282 861.24,-1300 825.58,-1318"/>
<text text-anchor="middle" x="825.58" y="-1295.8" font-family="Times,serif" font-size="14.00">uses</text>
</g>
<!-- Customers&#45;&gt;uses -->
<g id="edge48" class="edge">
<title>Customers&#45;&gt;uses</title>
<path fill="none" stroke="black" d="M587.53,-1253.28C644.21,-1264.45 751.12,-1285.52 799.58,-1295.07"/>
</g>
<!-- places -->
<g id="node27" class="node">
<title>places</title>
<polygon fill="none" stroke="black" points="825.58,-1210 780,-1192 825.58,-1174 871.16,-1192 825.58,-1210"/>
<text text-anchor="middle" x="825.58" y="-1187.8" font-family="Times,serif" font-size="14.00">places</text>
</g>
<!-- Customers&#45;&gt;places -->
<g id="edge45" class="edge">
<title>Customers&#45;&gt;places</title>
<path fill="none" stroke="black" d="M587.53,-1238.72C642.31,-1227.92 744.01,-1207.88 794.51,-1197.93"/>
</g>
<!-- uses&#45;&gt;Locations -->
<g id="edge49" class="edge">
<title>uses&#45;&gt;Locations</title>
<path fill="none" stroke="black" d="M844.58,-1291.58C855.39,-1286.41 869.38,-1279.55 881.55,-1273 954.95,-1233.51 1038.85,-1182.81 1082.2,-1156.19"/>
</g>
<!-- datetime -->
<g id="node26" class="node">
<title>datetime</title>
<ellipse fill="none" stroke="black" cx="1112.58" cy="-1300" rx="40.61" ry="18"/>
<text text-anchor="middle" x="1112.58" y="-1295.8" font-family="Times,serif" font-size="14.00">datetime</text>
</g>
<!-- uses&#45;&gt;datetime -->
<g id="edge13" class="edge">
<title>uses&#45;&gt;datetime</title>
<path fill="none" stroke="black" d="M861.53,-1300C914.74,-1300 1015.79,-1300 1071.76,-1300"/>
</g>
<!-- Orders -->
<g id="node28" class="node">
<title>Orders</title>
<polygon fill="none" stroke="black" points="576.68,-940 522.48,-940 522.48,-904 576.68,-904 576.68,-940"/>
<text text-anchor="middle" x="549.58" y="-917.8" font-family="Times,serif" font-size="14.00">Orders</text>
</g>
<!-- Orders&#45;&gt;places -->
<g id="edge46" class="edge">
<title>Orders&#45;&gt;places</title>
<path fill="none" stroke="black" d="M564.89,-939.16C595.8,-982.78 679.44,-1094.48 770.81,-1163.4 777.67,-1168.61 785.97,-1173.33 793.84,-1177.22"/>
<path fill="none" stroke="transparent" d="M563.26,-940.32C594.2,-983.98 677.83,-1095.68 769.61,-1165 776.68,-1170.34 784.98,-1175.07 792.95,-1179.01"/>
<path fill="none" stroke="black" d="M561.62,-941.48C592.6,-985.18 676.23,-1096.88 768.4,-1166.6 775.69,-1172.08 783.99,-1176.81 792.07,-1180.81"/>
<polygon fill="black" stroke="black" points="791.53,-1182.21 802.07,-1183.28 794.49,-1175.87 791.53,-1182.21"/>
</g>
<!-- oid -->
<g id="node29" class="node">
<title>oid</title>
<ellipse fill="none" stroke="black" cx="825.58" cy="-706" rx="27" ry="18"/>
<text text-anchor="start" x="813.14" y="-702.8" font-family="Times,serif" text-decoration="underline" font-size="14.00"> oid </text>
</g>
<!-- Orders&#45;&gt;oid -->
<g id="edge14" class="edge">
<title>Orders&#45;&gt;oid</title>
<path fill="none" stroke="black" d="M568.32,-903.85C604.02,-867.99 688.12,-786.88 769.61,-733 779.81,-726.26 791.94,-720.12 802.2,-715.41"/>
</g>
<!-- fcost -->
<g id="node30" class="node">
<title>fcost</title>
<ellipse fill="none" stroke="black" cx="825.58" cy="-760" rx="27.1" ry="18"/>
<text text-anchor="middle" x="825.58" y="-755.8" font-family="Times,serif" font-size="14.00">fcost</text>
</g>
<!-- Orders&#45;&gt;fcost -->
<g id="edge15" class="edge">
<title>Orders&#45;&gt;fcost</title>
<path fill="none" stroke="black" d="M576.73,-904.75C617.32,-878.23 698.24,-826.4 769.61,-787 780.31,-781.09 792.49,-775.04 802.66,-770.17"/>
</g>
<!-- dcost -->
<g id="node31" class="node">
<title>dcost</title>
<ellipse fill="none" stroke="black" cx="825.58" cy="-1084" rx="28.55" ry="18"/>
<text text-anchor="middle" x="825.58" y="-1079.8" font-family="Times,serif" font-size="14.00">dcost</text>
</g>
<!-- Orders&#45;&gt;dcost -->
<g id="edge16" class="edge">
<title>Orders&#45;&gt;dcost</title>
<path fill="none" stroke="black" d="M576.73,-939.25C617.32,-965.77 698.24,-1017.6 769.61,-1057 780.03,-1062.76 791.86,-1068.64 801.86,-1073.45"/>
</g>
<!-- pmode -->
<g id="node32" class="node">
<title>pmode</title>
<ellipse fill="none" stroke="black" cx="825.58" cy="-1030" rx="34.35" ry="18"/>
<text text-anchor="middle" x="825.58" y="-1025.8" font-family="Times,serif" font-size="14.00">pmode</text>
</g>
<!-- Orders&#45;&gt;pmode -->
<g id="edge17" class="edge">
<title>Orders&#45;&gt;pmode</title>
<path fill="none" stroke="black" d="M576.85,-932.36C628.96,-952.89 744.89,-998.59 797.58,-1019.36"/>
</g>
<!-- review -->
<g id="node33" class="node">
<title>review</title>
<ellipse fill="none" stroke="black" cx="825.58" cy="-976" rx="34.34" ry="18"/>
<text text-anchor="middle" x="825.58" y="-971.8" font-family="Times,serif" font-size="14.00">review</text>
</g>
<!-- Orders&#45;&gt;review -->
<g id="edge18" class="edge">
<title>Orders&#45;&gt;review</title>
<path fill="none" stroke="black" d="M576.85,-927.18C627.62,-937.18 738.97,-959.13 793.39,-969.85"/>
</g>
<!-- tplaced -->
<g id="node34" class="node">
<title>tplaced</title>
<ellipse fill="none" stroke="black" cx="825.58" cy="-922" rx="35.78" ry="18"/>
<text text-anchor="middle" x="825.58" y="-917.8" font-family="Times,serif" font-size="14.00">tplaced</text>
</g>
<!-- Orders&#45;&gt;tplaced -->
<g id="edge19" class="edge">
<title>Orders&#45;&gt;tplaced</title>
<path fill="none" stroke="black" d="M576.85,-922C626.55,-922 734.29,-922 789.87,-922"/>
</g>
<!-- from -->
<g id="node35" class="node">
<title>from</title>
<polygon fill="none" stroke="black" points="1112.58,-649 1073.87,-631 1112.58,-613 1151.29,-631 1112.58,-649"/>
<text text-anchor="middle" x="1112.58" y="-626.8" font-family="Times,serif" font-size="14.00">from</text>
</g>
<!-- Orders&#45;&gt;from -->
<g id="edge52" class="edge">
<title>Orders&#45;&gt;from</title>
<path fill="none" stroke="black" d="M559.03,-902.75C586.12,-856.11 664.85,-732.68 768.67,-677.23 820.18,-650.05 986.6,-636.56 1067.11,-631.47"/>
<path fill="none" stroke="transparent" d="M560.75,-903.76C587.81,-857.19 666.54,-733.76 769.61,-679 820.34,-652.05 986.77,-638.55 1067.23,-633.47"/>
<path fill="none" stroke="black" d="M562.48,-904.76C589.49,-858.26 668.22,-734.83 770.55,-680.77 820.5,-654.04 986.93,-640.54 1067.36,-635.46"/>
<polygon fill="black" stroke="black" points="1067.77,-636.94 1077.53,-632.83 1067.34,-629.95 1067.77,-636.94"/>
</g>
<!-- to -->
<g id="node36" class="node">
<title>to</title>
<polygon fill="none" stroke="black" points="825.58,-1156 798.58,-1138 825.58,-1120 852.58,-1138 825.58,-1156"/>
<text text-anchor="middle" x="825.58" y="-1133.8" font-family="Times,serif" font-size="14.00">to</text>
</g>
<!-- Orders&#45;&gt;to -->
<g id="edge50" class="edge">
<title>Orders&#45;&gt;to</title>
<path fill="none" stroke="black" d="M569.74,-938.74C605.41,-974.57 689.51,-1055.68 770.71,-1109.33 779.62,-1115.23 790.23,-1120.75 799.63,-1125.18"/>
<path fill="none" stroke="transparent" d="M568.32,-940.15C604.02,-976.01 688.12,-1057.12 769.61,-1111 778.69,-1117.01 789.31,-1122.53 798.77,-1126.99"/>
<path fill="none" stroke="black" d="M566.9,-941.56C602.64,-977.45 686.74,-1058.56 768.51,-1112.67 777.77,-1118.78 788.38,-1124.3 797.92,-1128.8"/>
<polygon fill="black" stroke="black" points="797.56,-1130.29 808.11,-1131.24 800.46,-1123.91 797.56,-1130.29"/>
</g>
<!-- contains -->
<g id="node37" class="node">
<title>contains</title>
<polygon fill="none" stroke="black" points="825.58,-832 769.64,-814 825.58,-796 881.52,-814 825.58,-832"/>
<text text-anchor="middle" x="825.58" y="-809.8" font-family="Times,serif" font-size="14.00">contains</text>
</g>
<!-- Orders&#45;&gt;contains -->
<g id="edge54" class="edge">
<title>Orders&#45;&gt;contains</title>
<path fill="none" stroke="black" d="M576.85,-911.64C629.63,-890.84 747.88,-844.23 799.58,-823.85"/>
</g>
<!-- delivers -->
<g id="node41" class="node">
<title>delivers</title>
<polygon fill="none" stroke="black" points="825.58,-886 771.81,-868 825.58,-850 879.35,-868 825.58,-886"/>
<text text-anchor="middle" x="825.58" y="-863.8" font-family="Times,serif" font-size="14.00">delivers</text>
</g>
<!-- Orders&#45;&gt;delivers -->
<g id="edge47" class="edge">
<title>Orders&#45;&gt;delivers</title>
<path fill="none" stroke="black" d="M576.47,-914.86C623.72,-905.55 723.49,-885.89 780.95,-874.56"/>
<path fill="none" stroke="transparent" d="M576.85,-916.82C624.11,-907.51 723.87,-887.85 781.34,-876.52"/>
<path fill="none" stroke="black" d="M577.24,-918.78C624.5,-909.47 724.26,-889.81 781.72,-878.48"/>
<polygon fill="black" stroke="black" points="782.08,-879.94 791.21,-874.58 780.72,-873.08 782.08,-879.94"/>
</g>
<!-- from&#45;&gt;Restaurants -->
<g id="edge53" class="edge">
<title>from&#45;&gt;Restaurants</title>
<path fill="none" stroke="black" d="M1147.74,-629.19C1243.92,-624.08 1516.74,-609.59 1619.64,-604.12"/>
</g>
<!-- to&#45;&gt;Locations -->
<g id="edge51" class="edge">
<title>to&#45;&gt;Locations</title>
<path fill="none" stroke="black" d="M852.63,-1138C904.16,-1138 1019.12,-1138 1076.95,-1138"/>
</g>
<!-- contains&#45;&gt;Food -->
<g id="edge55" class="edge">
<title>contains&#45;&gt;Food</title>
<path fill="none" stroke="black" d="M860.39,-807.12C916.42,-795.72 1027.65,-773.08 1081.27,-762.17"/>
</g>
<!-- rider_name -->
<g id="node39" class="node">
<title>rider_name</title>
<ellipse fill="none" stroke="black" cx="825.58" cy="-614" rx="50.25" ry="18"/>
<text text-anchor="middle" x="825.58" y="-609.8" font-family="Times,serif" font-size="14.00">rider_name</text>
</g>
<!-- Riders&#45;&gt;rider_name -->
<g id="edge20" class="edge">
<title>Riders&#45;&gt;rider_name</title>
<path fill="none" stroke="black" d="M576.85,-565.18C624,-574.47 723.41,-594.06 780.94,-605.4"/>
</g>
<!-- status -->
<g id="node40" class="node">
<title>status</title>
<ellipse fill="none" stroke="black" cx="825.58" cy="-560" rx="30" ry="18"/>
<text text-anchor="middle" x="825.58" y="-555.8" font-family="Times,serif" font-size="14.00">status</text>
</g>
<!-- Riders&#45;&gt;status -->
<g id="edge21" class="edge">
<title>Riders&#45;&gt;status</title>
<path fill="none" stroke="black" d="M576.85,-560C628.15,-560 741.33,-560 795.1,-560"/>
</g>
<!-- Riders&#45;&gt;delivers -->
<g id="edge56" class="edge">
<title>Riders&#45;&gt;delivers</title>
<path fill="none" stroke="black" d="M560.66,-578.07C588.37,-626.36 670.26,-760.23 769.61,-841 778.52,-848.24 789.69,-854.18 799.64,-858.63"/>
</g>
<!-- has -->
<g id="node46" class="node">
<title>has</title>
<polygon fill="none" stroke="black" points="825.58,-427.1 794.68,-409 825.58,-390.9 856.48,-409 825.58,-427.1"/>
<polygon fill="none" stroke="black" points="825.58,-431.75 786.73,-409 825.58,-386.25 864.43,-409 825.58,-431.75"/>
<text text-anchor="middle" x="825.58" y="-404.8" font-family="Times,serif" font-size="14.00">has</text>
</g>
<!-- Riders&#45;&gt;has -->
<g id="edge57" class="edge">
<title>Riders&#45;&gt;has</title>
<path fill="none" stroke="black" d="M576.85,-545.52C631.5,-515.4 756.36,-446.59 804.83,-419.88"/>
</g>
<!-- earns -->
<g id="node51" class="node">
<title>earns</title>
<polygon fill="none" stroke="black" points="825.58,-309.9 784.85,-292 825.58,-274.1 866.31,-292 825.58,-309.9"/>
<polygon fill="none" stroke="black" points="825.58,-314.25 774.95,-292 825.58,-269.75 876.21,-292 825.58,-314.25"/>
<text text-anchor="middle" x="825.58" y="-287.8" font-family="Times,serif" font-size="14.00">earns</text>
</g>
<!-- Riders&#45;&gt;earns -->
<g id="edge60" class="edge">
<title>Riders&#45;&gt;earns</title>
<path fill="none" stroke="black" d="M576.73,-543.5C581.3,-540.22 585.89,-536.66 589.96,-533 681.32,-450.9 674.75,-401.02 769.61,-323 778.92,-315.34 790.38,-308.54 800.42,-303.28"/>
</g>
<!-- tdepart -->
<g id="node42" class="node">
<title>tdepart</title>
<ellipse fill="none" stroke="black" cx="1112.58" cy="-976" rx="34.82" ry="18"/>
<text text-anchor="middle" x="1112.58" y="-971.8" font-family="Times,serif" font-size="14.00">tdepart</text>
</g>
<!-- delivers&#45;&gt;tdepart -->
<g id="edge22" class="edge">
<title>delivers&#45;&gt;tdepart</title>
<path fill="none" stroke="black" d="M851.37,-877.4C904.46,-897.51 1028.79,-944.63 1084.15,-965.6"/>
</g>
<!-- tcollect -->
<g id="node43" class="node">
<title>tcollect</title>
<ellipse fill="none" stroke="black" cx="1112.58" cy="-922" rx="36.26" ry="18"/>
<text text-anchor="middle" x="1112.58" y="-917.8" font-family="Times,serif" font-size="14.00">tcollect</text>
</g>
<!-- delivers&#45;&gt;tcollect -->
<g id="edge23" class="edge">
<title>delivers&#45;&gt;tcollect</title>
<path fill="none" stroke="black" d="M860.39,-874.41C915.39,-884.83 1023.57,-905.32 1078.25,-915.69"/>
</g>
<!-- tleave -->
<g id="node44" class="node">
<title>tleave</title>
<ellipse fill="none" stroke="black" cx="1112.58" cy="-868" rx="31.44" ry="18"/>
<text text-anchor="middle" x="1112.58" y="-863.8" font-family="Times,serif" font-size="14.00">tleave</text>
</g>
<!-- delivers&#45;&gt;tleave -->
<g id="edge24" class="edge">
<title>delivers&#45;&gt;tleave</title>
<path fill="none" stroke="black" d="M879.52,-868C938.92,-868 1033.24,-868 1081.29,-868"/>
</g>
<!-- tdelivered -->
<g id="node45" class="node">
<title>tdelivered</title>
<ellipse fill="none" stroke="black" cx="1112.58" cy="-814" rx="45.43" ry="18"/>
<text text-anchor="middle" x="1112.58" y="-809.8" font-family="Times,serif" font-size="14.00">tdelivered</text>
</g>
<!-- delivers&#45;&gt;tdelivered -->
<g id="edge25" class="edge">
<title>delivers&#45;&gt;tdelivered</title>
<path fill="none" stroke="black" d="M860.39,-861.59C913.03,-851.62 1014.39,-832.42 1070.93,-821.7"/>
</g>
<!-- Schedules -->
<g id="node47" class="node">
<title>Schedules</title>
<polygon fill="none" stroke="black" points="585.86,-310 513.3,-310 513.3,-274 585.86,-274 585.86,-310"/>
<polygon fill="none" stroke="black" points="589.85,-314 509.31,-314 509.31,-270 589.85,-270 589.85,-314"/>
<text text-anchor="middle" x="549.58" y="-287.8" font-family="Times,serif" font-size="14.00">Schedules</text>
</g>
<!-- Schedules&#45;&gt;has -->
<g id="edge58" class="edge">
<title>Schedules&#45;&gt;has</title>
<path fill="none" stroke="black" d="M590.92,-307.05C645.8,-330.48 743.93,-372.39 794.05,-393.79"/>
<path fill="none" stroke="transparent" d="M590.13,-308.89C645.01,-332.32 743.15,-374.23 793.26,-395.63"/>
<path fill="none" stroke="black" d="M589.34,-310.73C644.23,-334.16 742.36,-376.07 792.48,-397.47"/>
<polygon fill="black" stroke="black" points="792.05,-398.91 802.62,-399.62 794.8,-392.48 792.05,-398.91"/>
</g>
<!-- Schdate -->
<g id="node48" class="node">
<title>Schdate</title>
<ellipse fill="none" stroke="black" cx="825.58" cy="-350" rx="29.02" ry="18"/>
<text text-anchor="start" x="810.42" y="-346.8" font-family="Times,serif" text-decoration="underline" font-size="14.00"> date </text>
</g>
<!-- Schedules&#45;&gt;Schdate -->
<g id="edge26" class="edge">
<title>Schedules&#45;&gt;Schdate</title>
<path fill="none" stroke="black" d="M590.13,-300.37C646.59,-312.32 748.85,-333.97 797.48,-344.26"/>
</g>
<!-- Schstart -->
<g id="node49" class="node">
<title>Schstart</title>
<ellipse fill="none" stroke="black" cx="825.58" cy="-234" rx="29.51" ry="18"/>
<text text-anchor="start" x="810.03" y="-230.8" font-family="Times,serif" text-decoration="underline" font-size="14.00"> start </text>
</g>
<!-- Schedules&#45;&gt;Schstart -->
<g id="edge27" class="edge">
<title>Schedules&#45;&gt;Schstart</title>
<path fill="none" stroke="black" d="M590.13,-283.63C646.45,-271.71 748.31,-250.14 797.1,-239.82"/>
</g>
<!-- end -->
<g id="node50" class="node">
<title>end</title>
<ellipse fill="none" stroke="black" cx="825.58" cy="-180" rx="27" ry="18"/>
<text text-anchor="middle" x="825.58" y="-175.8" font-family="Times,serif" font-size="14.00">end</text>
</g>
<!-- Schedules&#45;&gt;end -->
<g id="edge28" class="edge">
<title>Schedules&#45;&gt;end</title>
<path fill="none" stroke="black" d="M590.13,-275.83C648.52,-251.97 755.88,-208.08 802.27,-189.12"/>
</g>
<!-- Salaries -->
<g id="node52" class="node">
<title>Salaries</title>
<polygon fill="none" stroke="black" points="579.88,-117 519.28,-117 519.28,-81 579.88,-81 579.88,-117"/>
<polygon fill="none" stroke="black" points="583.9,-121 515.26,-121 515.26,-77 583.9,-77 583.9,-121"/>
<text text-anchor="middle" x="549.58" y="-94.8" font-family="Times,serif" font-size="14.00">Salaries</text>
</g>
<!-- Salaries&#45;&gt;earns -->
<g id="edge59" class="edge">
<title>Salaries&#45;&gt;earns</title>
<path fill="none" stroke="black" d="M579.38,-119.54C620.13,-151.83 699.4,-213.11 770.7,-259.32 778.09,-264.12 786.36,-269.01 794.13,-273.41"/>
<path fill="none" stroke="transparent" d="M578.14,-121.11C618.91,-153.41 698.17,-214.69 769.61,-261 777.08,-265.84 785.34,-270.73 793.14,-275.15"/>
<path fill="none" stroke="black" d="M576.9,-122.68C617.69,-155 696.95,-216.27 768.52,-262.68 776.06,-267.56 784.32,-272.45 792.15,-276.89"/>
<polygon fill="black" stroke="black" points="791.57,-278.28 802.01,-280.09 794.98,-272.17 791.57,-278.28"/>
</g>
<!-- start_date -->
<g id="node53" class="node">
<title>start_date</title>
<ellipse fill="none" stroke="black" cx="825.58" cy="-72" rx="48.81" ry="18"/>
<text text-anchor="start" x="794.87" y="-68.8" font-family="Times,serif" text-decoration="underline" font-size="14.00"> start_date </text>
</g>
<!-- Salaries&#45;&gt;start_date -->
<g id="edge29" class="edge">
<title>Salaries&#45;&gt;start_date</title>
<path fill="none" stroke="black" d="M583.9,-95.72C632.54,-90.92 723.15,-82 778.25,-76.57"/>
</g>
<!-- base -->
<g id="node54" class="node">
<title>base</title>
<ellipse fill="none" stroke="black" cx="825.58" cy="-18" rx="27" ry="18"/>
<text text-anchor="middle" x="825.58" y="-13.8" font-family="Times,serif" font-size="14.00">base</text>
</g>
<!-- Salaries&#45;&gt;base -->
<g id="edge30" class="edge">
<title>Salaries&#45;&gt;base</title>
<path fill="none" stroke="black" d="M583.9,-89.15C639.95,-72.58 751.76,-39.53 800.7,-25.06"/>
</g>
<!-- bonus -->
<g id="node55" class="node">
<title>bonus</title>
<ellipse fill="none" stroke="black" cx="825.58" cy="-126" rx="31.47" ry="18"/>
<text text-anchor="middle" x="825.58" y="-121.8" font-family="Times,serif" font-size="14.00">bonus</text>
</g>
<!-- Salaries&#45;&gt;bonus -->
<g id="edge31" class="edge">
<title>Salaries&#45;&gt;bonus</title>
<path fill="none" stroke="black" d="M583.9,-102.28C637.67,-107.58 742.75,-117.94 794.42,-123.03"/>
</g>
</g>
</svg>
